<svg width="182" height="182" viewBox="0 0 182 182" fill="none" xmlns="http://www.w3.org/2000/svg">
              <path d="M47.2099 74.5107C56.4256 53.4664 71.6171 0 71.6171 0L62.4633 56.5232C65.8552 60.7003 68.6516 60.2686 75.6794 53.1741L61.9021 91.4774C64.8143 97.5378 66.9353 97.9561 72.0013 90.8719L62.1225 118.215C61.7541 124.178 73.6041 116.635 73.6041 116.635L48.96 172.33C34.0562 206.012 62.6929 131.113 57.4284 128.823C57.0887 126.479 54.2924 128.818 46.6344 136.732C52.0854 128.75 55.1546 122.795 60.7379 99.8421C57.4281 94.6011 55.0342 95.8306 50.1129 103.069C54.9217 84.3206 61.5783 73.5743 61.1254 66.714C60.6725 59.8536 50.3924 75.9189 47.2099 74.5107Z" fill="rgb(0, 255, 115)" fill-opacity="0.74"/>
              <path d="M79.8355 74.5107C89.0512 53.4664 104.243 0 104.243 0L95.0889 56.5232C98.4808 60.7003 101.277 60.2686 108.305 53.1741L94.5277 91.4774C97.4399 97.5378 99.5609 97.9561 104.627 90.8719L94.7481 118.215C94.3797 124.178 106.23 116.635 106.23 116.635L81.5856 172.33C66.6818 206.012 95.3185 131.113 90.054 128.823C89.7143 126.479 86.918 128.818 79.26 136.732C84.711 128.75 87.7802 122.795 93.3635 99.8421C90.0538 94.6011 87.6598 95.8306 82.7385 103.069C87.5473 84.3206 94.2039 73.5743 93.751 66.714C93.2981 59.8536 83.018 75.9189 79.8355 74.5107Z" fill="rgb(0, 255, 115)" fill-opacity="0.74"/>
              <path d="M112.461 74.5107C121.677 53.4664 136.868 0 136.868 0L127.715 56.5232C131.106 60.7003 133.903 60.2686 140.931 53.1741L127.153 91.4774C130.066 97.5378 132.186 97.9561 137.253 90.8719L127.374 118.215C127.005 124.178 138.855 116.635 138.855 116.635L114.211 172.33C99.3074 206.012 127.944 131.113 122.68 128.823C122.34 126.479 119.544 128.818 111.886 136.732C117.337 128.75 120.406 122.795 125.989 99.8421C122.679 94.6011 120.285 95.8306 115.364 103.069C120.173 84.3206 126.83 73.5743 126.377 66.714C125.924 59.8536 115.644 75.9189 112.461 74.5107Z" fill="rgb(0, 255, 115)" fill-opacity="0.74"/>
              </svg>