<svg width="330" height="281" viewBox="0 0 330 281" fill="none" xmlns="http://www.w3.org/2000/svg">
<path d="M1 96C23.2979 57.7601 45.7117 41.8661 108 26C127.754 2.22712 144.862 -2.22322 185 4.00001C214.099 25.1452 209.851 35.7405 244 50C275.766 25.1356 293.492 30.7506 325 66C335.484 121.01 322.377 140.414 312 164C316.199 212.236 308.257 235.102 250 258C206.785 240.556 187.532 254.6 137 280C100.447 279.725 80.1868 278.933 56 245C37.1283 213.445 34.6287 195.715 50 164C28.0105 147.462 21.1532 133.533 1 96Z" fill="#D9D9D9"/>
<path d="M1 96C23.2979 57.7601 45.7117 41.8661 108 26C127.754 2.22712 144.862 -2.22322 185 4.00001C214.099 25.1452 209.851 35.7405 244 50C275.766 25.1356 293.492 30.7506 325 66C335.484 121.01 322.377 140.414 312 164C316.199 212.236 308.257 235.102 250 258C206.785 240.556 187.532 254.6 137 280C100.447 279.725 80.1868 278.933 56 245C37.1283 213.445 34.6287 195.715 50 164C28.0105 147.462 21.1532 133.533 1 96Z" fill="#D9D9D9" stroke="black"/>
<path d="M50 164C28.0105 147.462 21.1532 133.533 1 96C14.8387 72.2672 86 187.033 86 208C86 208 126.337 241.462 158 216C177.754 192.227 82 176.368 147 154.368C176.099 175.513 171 222.368 219 209.368C267 196.368 284 164 282 120C280 76 322.377 140.414 312 164C316.199 212.236 308.257 235.102 250 258C206.785 240.556 187.532 254.6 137 280C100.447 279.725 80.1868 278.933 56 245C37.1283 213.445 34.6287 195.715 50 164Z" fill="#B0B0B0"/>
<path d="M93 116.188C84.3333 116.188 75.2 111.2 56 76C81.9998 69.7721 118 87 105 51L165 35L130 51L124 72.1885C92.4686 82.0194 81.5621 90.0943 93 116.188Z" fill="#B0B0B0"/>
<path d="M178 136C201 136 225.948 135.737 228 108C228 108 280 48.3771 261 72.1885C242 96 240 154.368 240 154.368H208L178 136Z" fill="#B0B0B0"/>
<path d="M118 136C119 126 128.8 102 160 86L166 68C197.497 46.8636 209.717 52.6921 230 68C214.576 85.8515 204.365 93.0201 178 91C158.965 102.44 150.27 109.373 151 126L118 136Z" fill="#EEEEEE"/>
<path d="M31 86C25.2269 81.0076 29.414 65.383 71 46C96.3544 37.6334 98.2634 41.2684 88 57L71 62C51.5332 63.4854 44.7272 72.7435 31 86Z" fill="#EEEEEE"/>
<path d="M273 46C278.333 49.6667 291 58 299 62L304 91L273 80C281.383 69.1172 283.937 62.4028 273 46Z" fill="#EEEEEE"/>
<path d="M175 136C176.104 139.313 186.562 143.837 190 145.556C192.782 146.947 195.922 147 198.944 147C204.91 147 208.259 146.541 213.056 142.944C215.454 141.146 218.006 139.52 220.444 137.778C223.024 135.935 226.03 136.297 228.556 134.444C234.048 130.417 230.068 124.097 234.056 119.444C240.235 112.235 244.495 103.266 250.222 95.5556C253.915 90.5844 258.08 87.3754 259.778 81.2222C260.633 78.1218 259 73.4365 259 70" stroke="black" stroke-linecap="round"/>
<path d="M227 138C232.933 139.318 234 145.87 234 150.667C234 155.803 232 160 232 165" stroke="black" stroke-linecap="round"/>
<path d="M90 228C101.803 234.54 116.892 245.188 130.944 246.944C136.256 247.608 140.841 245.143 146 245C156.618 244.705 171 235.787 171 224C171 219.754 169 216.254 169 212C169 205.525 171.043 194.228 167.889 188.444C163.761 180.878 151.733 182.901 149.833 174.667C148.771 170.065 144 164.513 144 160" stroke="black" stroke-linecap="round"/>
<path d="M170 214C175.696 214 179.884 214.062 185.056 216.389C190.008 218.617 197.465 220.623 202.778 221.778C207.596 222.825 214.682 222.717 219.444 221.889C225.642 220.811 228.141 213.766 231 209" stroke="black" stroke-linecap="round"/>
<path d="M60 82C66.8227 82.5458 73.5344 85.5685 80.2222 86C82.6147 86.1544 86.0715 86.5975 88 84.9444C92.5961 81.0049 96.2384 75.0634 102.222 73.2222C110.248 70.7527 115.262 65.4142 118.056 57.5C120.101 51.7046 127.345 49.1036 132 46" stroke="black" stroke-linecap="round"/>
<path d="M114 65C119.873 65.6182 124.245 71.3342 128.944 74.3889C130.758 75.5675 133.188 79.7139 135 80C137.716 80.4288 137.403 81.695 138.556 84C139.995 86.8789 143.253 86 146 86" stroke="black" stroke-linecap="round"/>
<path d="M104 133C103.479 138.206 101.56 143.884 106.778 147.556C111.681 151.006 117.107 152 122.944 152C130.999 152 133.877 155.408 140 160" stroke="black" stroke-linecap="round"/>
<path d="M58 161C60.105 163.736 63.9817 165.421 65.4444 168.556C66.9475 171.776 67.1192 175.936 68.2222 179.333C70.1882 185.389 71.3457 189.132 77.7778 190.222C82.569 191.034 86.0076 192 91 192C93.7846 192 96.2154 191 99 191" stroke="black" stroke-linecap="round"/>
<path d="M284 118C288.292 120.777 289.881 129.631 293.222 134C295.547 137.04 300.626 140.439 301.778 144C302.679 146.787 304.524 148.833 305.778 151.444C306.969 153.926 306.193 156.712 307.222 159C308.871 162.664 311.606 162 315 162" stroke="black" stroke-linecap="round"/>
<path d="M248 257C254.071 253.965 246.735 242.173 250.444 238C255.721 232.064 263.729 229.344 270 224.444C273.79 221.483 277.009 217.903 280.444 214.556C283.466 211.612 287.685 209.617 289.889 205.944C293.783 199.454 293.008 193.056 292 186" stroke="black" stroke-linecap="round"/>
<path d="M276 215C267.932 215 260 215.476 260 205" stroke="black" stroke-linecap="round"/>
<path d="M212 32C211.441 27.5256 199.472 28 196 28C191.134 28 189.509 29.8992 185.556 32.0556C182.454 33.7475 179.945 37.6652 178.056 40.5C176.635 42.6313 172.388 42.403 170 43" stroke="black" stroke-linecap="round"/>
</svg>
