<svg width="30" height="31" viewBox="0 0 30 31" fill="none" xmlns="http://www.w3.org/2000/svg">
<path fill-rule="evenodd" clip-rule="evenodd" d="M15.0953 0.721512L17.3225 1.84651V4.09651L16.3996 4.56271V11.3065L18.8106 12.4256L25.5553 9.01871V8.14651L27.7825 7.02151L30.0096 8.14651V10.3965L27.7825 11.5215L26.9346 11.0933L20.4176 14.3852V17.0578L27.0831 20.4248L27.7825 20.0715L30.0096 21.1965V23.4465L27.7825 24.5715L25.5553 23.4465V22.4243L18.8106 19.0174L16.3996 20.1365V26.8803L17.3225 27.3465V29.5965L15.0953 30.7215L12.8682 29.5965V27.3465L13.6573 26.9479V20.2336L11.1466 19.0682L4.46407 22.4437V23.4465L2.2369 24.5715L0.00973558 23.4465V21.1965L2.2369 20.0715L2.95545 20.4345L9.4302 17.1639V14.2791L3.10393 11.0836L2.2369 11.5215L0.00973558 10.3965V8.14651L2.2369 7.02151L4.46407 8.14651V8.99932L11.1466 12.3748L13.6573 11.2094V4.49512L12.8682 4.09651V1.84651L15.0953 0.721512ZM17.7564 14.4465L15.0096 13.1715L12.2628 14.4465V16.9965L15.0096 18.2715L17.7564 16.9965V14.4465Z" fill="#D0FCFF"/>
</svg>
