<svg width="244" height="192" viewBox="0 0 244 192" fill="none" xmlns="http://www.w3.org/2000/svg">
<path d="M23 140.5L42 34C47.3859 14.9227 52.4727 6.99509 68 1.5C81.2051 2.82356 88.8123 6.5652 102.5 15C113.164 2.56041 119.305 -1.90574 131 1.5C146.113 3.10607 151.177 10.6255 161 22.5C171.878 19.5641 177.175 18.8667 182.5 22.5C196.538 24.9576 201.312 33.7425 210 49C219.67 44.6507 224.885 46.1862 234 52.5C245.534 65.0606 244.08 72.7783 242 86.5L212.5 167C197.818 171.007 191.23 169.19 182.5 158.5L200.5 86.5H195.5L170.5 173C153.323 176.549 144.463 175.945 131 167L150.5 75H144L122 163.5C101.827 167.591 91.0667 166.581 73.5 155L92 64C89.6523 59.3274 87.7148 58.5716 83 61L64.5 148.5C45.7474 151.86 36.7378 149.912 23 140.5Z" fill="#FFCE20"/>
<path d="M2.5 87.5C4.6802 81.4106 10.2195 74.265 27 69L15 134C15.6591 147.824 19.2376 150.472 27 153L92.5 170C102.395 174.435 103.651 179.717 101.5 192L27 186.5C17.0838 184.468 12.1537 180.85 6 164C0.310731 138.011 -0.888864 121.65 2.5 87.5Z" fill="#FFCE20"/>
</svg>
