<svg width="330" height="331" viewBox="0 0 330 331" fill="none" xmlns="http://www.w3.org/2000/svg">
<path d="M69.139 314.864C68.2108 316.824 67.3293 318.546 66.4655 320.056C64.3551 323.744 62.3733 326.118 60.1148 327.59C57.8659 329.056 55.2908 329.662 51.9252 329.709C48.5746 329.757 44.4841 329.253 39.2037 328.523C35.0632 325.241 31.6663 322.334 29.2226 319.619C26.7541 316.875 25.307 314.379 25.0061 311.939C24.7085 309.525 25.5225 307.069 27.7964 304.369C30.0796 301.658 33.8075 298.737 39.2595 295.427L38.9537 294.502C30.0316 295.333 18.3171 292.651 10.2648 286.547C6.24672 283.5 3.16153 279.619 1.76777 274.917C0.376111 270.222 0.654852 264.657 3.45566 258.206C5.90952 252.991 9.05909 249.866 12.6537 248.199C16.258 246.528 20.3699 246.294 24.7919 246.975C32.3004 248.13 40.5553 251.892 48.4948 255.51C49.9413 256.169 51.3772 256.824 52.7963 257.457L53.3615 256.655C44.1533 247.02 45.8181 235.276 47.4369 223.857C47.5567 223.012 47.6763 222.168 47.7913 221.327C52.1793 217.405 55.9753 214.742 59.7411 213.275C63.5302 211.8 67.3166 211.525 71.6881 212.444C76.0757 213.366 81.0563 215.492 87.2188 218.831C93.3787 222.17 100.688 226.704 109.733 232.423C128.111 244.043 155.828 240.891 192.594 207.498C229.047 174.389 274.549 111.437 328.988 3.13398C325.494 22.8032 315.366 48.1657 301.851 75.5219C287.596 104.376 269.594 135.403 251.702 164.23C215.916 221.89 180.593 270.709 176.61 275.688C174.643 278.146 169.866 282.75 163.277 288.27C156.698 293.782 148.34 300.186 139.233 306.243C130.126 312.301 120.279 318.005 110.72 322.126C101.16 326.247 91.93 328.766 84.0341 328.501C82.1169 328.302 80.33 328.18 78.7022 328.07L78.6563 328.067C77.0376 327.958 75.5844 327.859 74.302 327.708C71.6746 327.396 69.9408 326.873 69.0164 325.753C68.1137 324.66 67.8584 322.83 68.6881 319.525C68.9971 318.294 69.4511 316.88 70.0605 315.254C71.408 312.405 72.8467 309.073 74.4617 305.192L73.549 304.784C71.6297 308.794 70.1717 312.113 69.139 314.864Z" fill="white" fill-opacity="0.27" stroke="white"/>
<path d="M40 296C109.6 293.6 130.333 281 132 275" stroke="white"/>
<path d="M52.5 257.5C57.7 272.7 45.6666 280.833 39 283C25.6842 283.377 21.2334 280.719 18 271.5C19.9096 265.632 23.4047 263.496 34.5 262" stroke="white"/>
<path d="M67.7892 213.492C83.4219 209.79 90.3497 222.556 91.8595 229.401C90.9429 242.691 87.8661 246.863 78.3767 249.187C72.7221 246.717 70.9351 243.031 70.522 231.843" stroke="white"/>
<path d="M68.9348 321.147C64.9376 309.884 73.8197 303.732 78.7604 302.063C88.6623 301.67 91.9956 303.609 94.4791 310.439C93.1085 314.82 90.5267 316.439 82.2861 317.646" stroke="white"/>
<path d="M32.8142 300.75C40.0663 293.353 48.2358 297.932 51.414 301.146C55.4859 308.708 55.2432 312.042 50.8676 316.574C46.9342 317.172 44.6917 315.777 40.6176 309.818" stroke="white"/>
<path d="M128.5 258C96.9 267.6 66.6667 262 55.5 258" stroke="white"/>
</svg>
