<svg width="209" height="99" viewBox="0 0 209 99" fill="none" xmlns="http://www.w3.org/2000/svg">
<path fill-rule="evenodd" clip-rule="evenodd" d="M32.025 40.9091L36.3559 9.35556L9.78348 7.80356L2.54502 97.7472L39.6459 93.3283L41.5421 84.3391C48.7888 85.6853 56.9785 84.1284 64.113 79.4067C65.5503 78.4556 66.8861 77.4148 68.1159 76.3003C76.1843 86.641 92.3454 88.3354 105.122 79.8795C105.642 79.5356 106.149 79.1799 106.642 78.8133C106.624 79.2425 106.682 79.6677 106.825 80.0818L106.817 80.1729L106.805 80.313L106.805 80.3153C106.598 82.6574 106.015 89.2613 113.262 93.7764C126.309 98.831 132.911 98.2882 143.86 93.3988C149.563 89.1429 152.291 85.7373 153.215 80.342C156.254 82.0408 159.713 83.2163 163.456 83.7902C171.596 85.0409 178.254 84.2719 185.053 81.3039L190.502 78.9262L187.907 73.5735L183.359 64.1839L188.415 61.8814L192.97 59.8065L191.512 55.0181C188.668 45.6752 180.687 39.1305 170.168 37.5188C163.837 36.5471 157.962 37.5614 153.158 40.14L152.996 27.0214L136.407 27.2261L136.48 33.1816C125.914 31.4929 120.017 32.2208 112.269 39.194C103.718 30.9905 89.1207 30.1903 77.3802 37.9602C75.943 38.9113 74.6072 39.9521 73.3773 41.0667C65.309 30.7259 49.1479 29.0315 36.3708 37.4874C34.7988 38.5277 33.3483 39.6752 32.025 40.9091ZM114.956 69.7351C114.497 70.4911 114.001 71.2332 113.47 71.9584C114.785 71.5225 116.137 71.3375 117.375 71.5068C116.625 71.08 115.788 70.4584 114.956 69.7351Z" fill="black"/>
<path d="M156.996 22.0214L157.354 51.0543L147.401 51.1771C154.183 54.9711 156.019 59.2924 157.575 68.9207C157.821 78.4856 155.534 82.6726 147.86 88.3988C136.911 93.2882 130.309 93.831 117.262 88.7764C109.757 84.1007 110.649 77.1849 110.825 75.0818C109.412 70.9934 116.337 65.8181 121.375 66.5068C118.815 65.0493 115.235 61.321 114.314 59.031C110.027 50.2157 109.402 45.2511 114.034 36.3258C122.951 27.3787 128.922 26.3344 140.48 28.1816L140.407 22.2262L156.996 22.0214Z" fill="#3C5AA6"/>
<path fill-rule="evenodd" clip-rule="evenodd" d="M153.893 27.5645L144.221 27.6838L144.292 33.4488C134.922 30.962 130.178 31.4132 123.289 35.0115C118.305 38.8432 116.242 41.6757 115.656 49.6164C117.127 55.7368 119.005 58.3863 123.625 62.1684L136.328 66.4764C141.391 68.0529 141.647 69.3834 140.675 72.0038C136.877 74.3025 134.298 74.296 128.957 72.1484C124.423 69.7745 121.888 68.976 117.424 72.2907C115.056 77.3185 116.206 79.6149 119.608 83.4258C128.007 86.7592 131.313 86.8472 136.571 86.193C143.361 85.6767 146.937 83.8198 152.832 77.2487C155.238 69.4282 155.391 65.5001 151.319 60.1523C148.526 56.2287 146.337 54.5807 140.446 53.4032L130.551 50.5488C129.164 49.2069 128.836 48.2106 129.561 45.7241C131.606 43.6651 133.54 43.7354 138.117 45.6185C141.569 47.5373 143.75 48.435 146.164 48.1236L154.146 48.0251L153.893 27.5645Z" fill="#FFD700"/>
<path fill-rule="evenodd" clip-rule="evenodd" d="M191.907 68.5735L187.359 59.1839L192.415 56.8814L196.97 54.8065L195.512 50.0181C192.668 40.6752 184.687 34.1305 174.168 32.5188C159.532 30.2725 147.335 38.6396 145.165 52.412C144.291 57.9511 145.703 63.583 149.137 68.2721C153.24 73.8741 159.747 77.6082 167.456 78.7902C175.596 80.0409 182.254 79.272 189.053 76.3039L194.502 73.9262L191.907 68.5735Z" fill="#3C5AA6"/>
<path fill-rule="evenodd" clip-rule="evenodd" d="M182.398 61.1057C179.749 62.4612 176.913 63.5233 172.888 62.8917C171.547 62.6808 169.778 62.2721 168.805 61.6612L190.77 51.8621C188.568 44.8306 182.444 39.4959 173.577 38.1028C162.556 36.3725 152.422 41.8072 150.651 53.3007C149.227 62.5488 156.6 71.572 168.665 73.4677C175.972 74.6154 181.639 73.9841 187.521 71.4713L182.398 61.1057Z" fill="#FFD700"/>
<path d="M162.213 55.4421C160.637 51.7445 162.566 48.4443 165.056 45.2165C168.154 43.0769 171.285 44.0883 172.984 48.9975L162.213 55.4421Z" fill="#3C5AA6"/>
<path d="M37.5115 6.69371L29.3792 65.943L28.8745 69.62L32.4717 68.706L45.9528 65.2805L41.5698 86.0579L9.28195 89.9035L16.0792 5.44192L37.5115 6.69371Z" fill="#FFD700" stroke="#3C5AA6" stroke-width="5"/>
<mask id="path-8-inside-1_112_50" fill="white">
<path fill-rule="evenodd" clip-rule="evenodd" d="M109.122 74.8795C122.457 66.0549 127.056 49.5171 119.395 37.9414C111.734 26.3657 94.7145 24.1355 81.3802 32.9602C79.943 33.9114 78.6072 34.9521 77.3773 36.0667C69.309 25.7259 53.1479 24.0315 40.3708 32.4874C27.0365 41.3121 22.4372 57.8498 30.0981 69.4255C37.7589 81.0012 54.7788 83.2314 68.113 74.4068C69.5503 73.4556 70.8861 72.4148 72.1159 71.3003C80.1843 81.641 96.3454 83.3354 109.122 74.8795Z"/>
</mask>
<path fill-rule="evenodd" clip-rule="evenodd" d="M109.122 74.8795C122.457 66.0549 127.056 49.5171 119.395 37.9414C111.734 26.3657 94.7145 24.1355 81.3802 32.9602C79.943 33.9114 78.6072 34.9521 77.3773 36.0667C69.309 25.7259 53.1479 24.0315 40.3708 32.4874C27.0365 41.3121 22.4372 57.8498 30.0981 69.4255C37.7589 81.0012 54.7788 83.2314 68.113 74.4068C69.5503 73.4556 70.8861 72.4148 72.1159 71.3003C80.1843 81.641 96.3454 83.3354 109.122 74.8795Z" fill="#FFD700"/>
<path d="M119.395 37.9414L123.982 34.906L123.982 34.906L119.395 37.9414ZM109.122 74.8795L112.158 79.4661L112.158 79.4661L109.122 74.8795ZM81.3802 32.9602L84.4156 37.5467L84.4156 37.5467L81.3802 32.9602ZM77.3773 36.0667L73.0411 39.45L76.6833 44.118L81.0706 40.1422L77.3773 36.0667ZM40.3708 32.4874L37.3354 27.9009L40.3708 32.4874ZM30.0981 69.4255L25.5115 72.4609L30.0981 69.4255ZM68.113 74.4068L65.0777 69.8202L65.0776 69.8202L68.113 74.4068ZM72.1159 71.3003L76.4522 67.9169L72.81 63.2489L68.4227 67.2248L72.1159 71.3003ZM114.809 40.9768C120.404 49.4319 117.519 62.7274 106.087 70.293L112.158 79.4661C127.395 69.3823 133.708 49.6024 123.982 34.906L114.809 40.9768ZM84.4156 37.5467C95.8473 29.9812 109.213 32.5218 114.809 40.9768L123.982 34.906C114.256 20.2097 93.5817 18.2899 78.3448 28.3736L84.4156 37.5467ZM81.0706 40.1422C82.0946 39.2143 83.2104 38.3443 84.4156 37.5467L78.3448 28.3736C76.6755 29.4784 75.1199 30.69 73.6841 31.9912L81.0706 40.1422ZM43.4061 37.074C54.3304 29.8443 67.1124 31.8515 73.0411 39.45L81.7136 32.6833C71.5056 19.6002 51.9653 18.2188 37.3354 27.9009L43.4061 37.074ZM34.6846 66.3901C29.089 57.9351 31.9744 44.6395 43.4061 37.074L37.3354 27.9009C22.0985 37.9847 15.7854 57.7646 25.5115 72.4609L34.6846 66.3901ZM65.0776 69.8202C53.6459 77.3857 40.2802 74.8452 34.6846 66.3901L25.5115 72.4609C35.2376 87.1573 55.9116 89.0771 71.1484 78.9933L65.0776 69.8202ZM68.4227 67.2248C67.3987 68.1527 66.2828 69.0226 65.0777 69.8202L71.1484 78.9933C72.8177 77.8886 74.3734 76.6769 75.8092 75.3758L68.4227 67.2248ZM106.087 70.293C95.1629 77.5226 82.3808 75.5154 76.4522 67.9169L67.7797 74.6836C77.9877 87.7667 97.5279 89.1482 112.158 79.4661L106.087 70.293Z" fill="#3C5AA6" mask="url(#path-8-inside-1_112_50)"/>
<path fill-rule="evenodd" clip-rule="evenodd" d="M68.8522 48.6204C67.7876 54.2091 62.1661 57.7015 56.0969 56.5454C50.118 55.4064 46.1762 50.0923 47.2408 44.5037C48.2407 39.2545 53.8605 35.7597 59.9318 36.9162C65.9082 38.0568 69.8521 43.3713 68.8522 48.6204Z" fill="#3C5AA6"/>
<path fill-rule="evenodd" clip-rule="evenodd" d="M68.456 45.3322C67.6275 48.9365 64.1746 51.114 60.6192 50.2743C57.1204 49.4481 54.9729 45.9467 55.8012 42.3437C56.5781 38.9582 60.0312 36.7794 63.5853 37.6188C67.0854 38.4453 69.2341 41.9469 68.456 45.3322Z" fill="white"/>
<path fill-rule="evenodd" clip-rule="evenodd" d="M109.862 49.0932C108.797 54.6819 103.176 58.1742 97.1064 57.0181C91.1275 55.8792 87.1856 50.5651 88.2502 44.9764C89.2502 39.7273 94.87 36.2325 100.941 37.389C106.918 38.5295 110.862 43.844 109.862 49.0932Z" fill="#3C5AA6"/>
<path fill-rule="evenodd" clip-rule="evenodd" d="M109.465 45.8049C108.637 49.4092 105.184 51.5867 101.629 50.747C98.1298 49.9208 95.9824 46.4195 96.8107 42.8164C97.5875 39.4309 101.041 37.2521 104.595 38.0916C108.095 38.918 110.244 42.4196 109.465 45.8049Z" fill="white"/>
</svg>
