<svg width="166" height="112" viewBox="0 0 166 112" fill="none" xmlns="http://www.w3.org/2000/svg">
<path fill-rule="evenodd" clip-rule="evenodd" d="M0.646737 29.0354L32.7344 23.163L39.4826 33.088L37.7479 22.3063L65.2925 17.8738L68.009 53.0329C72.8285 49.0793 79.2656 46.7729 86.619 46.7721C92.4246 46.7699 97.7465 48.2143 102.184 50.8675L103.463 34.4963L125.285 37.145L124.613 44.7637L132.565 36.5144L134.346 43.6747L138.142 33.7904L163 36.3648L135.071 100.535L117.545 95.6639L117.751 92.7548L110.449 90.7256L109.741 91.1733C102.955 95.4663 95.9564 97.3833 87.0424 97.3827C81.155 97.3844 75.6897 95.9621 71.1199 93.2974L71.6612 100.303L50.8039 102.242L47.6149 95.0536L28.8965 100.004L12.5588 44.3986L7.71825 45.272L0.646737 29.0354Z" fill="black"/>
<path fill-rule="evenodd" clip-rule="evenodd" d="M137.744 96.2502L120.218 91.3794L120.424 88.4702L101.985 83.3455L106.136 30.2117L127.959 32.8604L127.286 40.4792L135.238 32.2298L137.02 39.3901L140.815 29.5059L165.673 32.0803L137.744 96.2502Z" fill="#3C5AA6"/>
<path fill-rule="evenodd" clip-rule="evenodd" d="M126.005 87.9797L134.926 90.4588L158.182 36.4428L144.526 34.7191L135.4 56.1063L133.552 42.3929L122.248 55.7435L122.171 55.7219L123.724 37.0496L110.842 35.6848L107.555 80.053L120.044 83.5237L127.286 67.9707L126.005 87.9797Z" fill="#FFD700"/>
<path fill-rule="evenodd" clip-rule="evenodd" d="M3.32006 24.7509L35.4077 18.8785L42.1559 28.8034L40.4212 18.0218L67.9658 13.5892L74.3345 96.0186L53.4772 97.9577L50.2882 90.769L31.5698 95.7197L15.2321 40.114L10.3916 40.9875L3.32006 24.7509Z" fill="#3C5AA6"/>
<path fill-rule="evenodd" clip-rule="evenodd" d="M11.3885 29.3606L32.1657 25.1642L51.4379 53.0138L46.5378 22.8514L62.4708 19.9553L68.0522 90.7436L56.5793 91.9772L39.9107 54.7765L46.9551 85.9169L35.0861 88.8208L17.9763 34.0967L13.3103 34.7373L11.3885 29.3606Z" fill="#FFD700"/>
<path fill-rule="evenodd" clip-rule="evenodd" d="M114.198 78.1487L107.789 68.8498L112.82 65.5553L117.352 62.5869L115.005 57.7032C110.427 48.1741 100.812 42.4833 89.2923 42.4875C73.2636 42.4893 61.5886 53.4459 61.53 68.5382C61.5053 74.6085 63.942 80.4021 68.3868 84.8549C73.6974 90.1744 81.2725 93.1005 89.7157 93.0981C98.6297 93.0988 105.628 91.1818 112.415 86.8888L117.853 83.4495L114.198 78.1487Z" fill="#3C5AA6"/>
<path fill-rule="evenodd" clip-rule="evenodd" d="M102.797 71.7213C100.185 73.6069 97.3248 75.2094 92.9143 75.1951C91.4449 75.1899 89.4856 75.0432 88.3442 74.5494L110.235 60.4553C106.723 53.2939 99.2948 48.5924 89.5783 48.5591C77.5018 48.519 67.5519 55.9992 67.5461 68.5875C67.542 78.7165 76.9144 87.1591 90.1341 87.2048C98.1409 87.232 104.1 85.6252 109.981 81.9701L102.797 71.7213Z" fill="#FFD700"/>
<path d="M80.2689 68.9786C77.975 65.2814 79.4963 61.4335 81.6298 57.5707C84.5933 54.7722 88.1091 55.34 90.7342 60.3132L80.2689 68.9786Z" fill="#3C5AA6"/>
</svg>
