<svg width="403" height="150" viewBox="0 0 403 150" fill="none" xmlns="http://www.w3.org/2000/svg">
<path fill-rule="evenodd" clip-rule="evenodd" d="M192.621 37.1581L220.306 5.26697L235.619 28.1338L213.658 39.9326C223.726 40.1431 232.814 44.3911 239.083 52.1068L241.233 54.7532L244.195 36.6415H270.061L270.751 32.6039H295.336L300.89 67.795C303.181 66.1601 305.693 64.7917 308.384 63.7621C316.453 60.7236 325.015 61.0855 331.904 64.743C331.958 64.7717 332.012 64.8005 332.066 64.8295L332.483 61.1175L326.911 59.8771L326.64 39.3272L363.611 47.4616L366.372 61.113L369.36 48.7976L400.824 56.4313L370.601 147.489L347.413 140.192L347.231 131.068L324.979 127.954L326.324 115.976C325.272 116.511 324.187 116.993 323.071 117.416C318.413 119.171 313.584 119.782 309.013 119.268L310.788 130.512L277.347 124.613L275.631 109.723L270.933 118.795L263.229 104.559L261.597 115.183L232.112 110.534L234.407 96.4953C229.831 99.2296 224.694 101.232 218.663 102.684C216.414 103.226 214.175 103.585 211.964 103.763V129.939L157.275 102.889L157.309 126.37L131.14 130.214L130.013 118.096C126.93 121.129 123.271 123.647 119.166 125.398C110.986 128.864 102.135 128.858 94.8833 125.371C88.1691 122.148 83.3281 116.305 81.2501 108.918C80.2571 105.392 80.0252 101.716 80.4578 98.0721C78.4972 99.9481 76.3689 101.738 74.0853 103.417L82.0217 133.903L83.7537 140.558L77.2057 142.65L62.2547 147.432L56.0709 149.41L53.4148 143.483L25.8048 81.8266L24.9673 82.2363L18.945 85.1791C18.9291 85.1882 15.5151 79.4186 15.5151 79.4186L4.40601 60.6463L0.823608 54.5944L6.7571 50.8208C11.6884 47.7137 16.8653 45.0145 22.2361 42.7502C37.4055 36.3 52.8231 33.9876 65.6505 36.2386C70.883 36.8258 75.8788 38.5692 80.0666 41.3573C86.1215 44.7389 90.9026 50.0101 93.6793 56.3651C96.0226 61.7713 96.3589 67.8402 94.9662 73.9954C97.0186 72.5099 99.246 71.2317 101.622 70.2099C109.666 66.8008 118.328 66.7248 125.537 69.9608L124.598 59.8633L118.283 61.5088L117.338 41.5621L154.45 29.7179L154.127 44.9965L162.441 29.0897L186.169 50.1373C189.284 47.193 193.063 44.759 197.403 42.9922L192.621 37.1581ZM238.387 72.1595L240.264 60.6774L238.719 62.3237L233.561 67.8157L238.387 72.1595ZM176.408 69.977L169.39 76.7943L176.929 79.7194C176.268 76.3891 176.108 73.1208 176.408 69.977Z" fill="black"/>
<path fill-rule="evenodd" clip-rule="evenodd" d="M213.964 124.939V88.3135L171.39 71.7943L193.742 50.0814L164.441 24.0897L156.127 39.9965L156.45 24.7179L119.338 36.5621L120.283 56.5088L126.598 54.8633L133.14 125.214L159.309 121.37L159.275 97.8885L213.964 124.939Z" fill="#3C5AA6"/>
<path fill-rule="evenodd" clip-rule="evenodd" d="M126.323 41.6832L148.878 34.9691L150.253 58.2205L166.865 34.8826L183.1 50.3388L160.408 74.2662L207.125 92.7541V114.037L152.85 86.8934L152.945 115.33L138.907 117.251L132.914 46.0759L126.598 47.7237L126.323 41.6832Z" fill="#FFD700"/>
<path fill-rule="evenodd" clip-rule="evenodd" d="M297.336 27.6039H272.751L272.061 31.6415H246.195L234.112 105.534L263.597 110.183L265.229 99.5592L272.933 113.795L277.631 104.723L279.347 119.613L312.788 125.512L297.336 27.6039Z" fill="#3C5AA6"/>
<path fill-rule="evenodd" clip-rule="evenodd" d="M279.217 34.4204H291.73L304.405 116.741L285.931 113.921L281.022 81.3581L274.076 99.3247L263.658 76.8767H263.549L259.427 102.88L242.087 99.8641L252.413 38.2304H269.931L274.296 62.1397L279.217 34.4204Z" fill="#FFD700"/>
<path fill-rule="evenodd" clip-rule="evenodd" d="M328.64 34.3272L365.611 42.4616L368.372 56.113L371.36 43.7976L402.824 51.4313L372.601 142.489L349.413 135.192L349.231 126.068L326.979 122.954L334.483 56.1175L328.911 54.8771L328.64 34.3272Z" fill="#3C5AA6"/>
<path fill-rule="evenodd" clip-rule="evenodd" d="M335.202 42.8848L359.318 47.7304L367.425 86.1877L375.735 51.7134L394.084 55.7737L368.249 134.022L355.419 130.187L354.3 82.8943L347.845 119.378L333.841 117.152L340.122 50.9122L334.842 49.5011L335.202 42.8848Z" fill="#FFD700"/>
<path fill-rule="evenodd" clip-rule="evenodd" d="M325.071 112.416C317.083 115.425 308.589 115.072 301.765 111.447C295.449 108.087 291.029 102.293 289.322 95.1232C285.913 80.8232 295.358 64.5112 310.384 58.7621C318.453 55.7236 327.015 56.0855 333.904 59.743C340.163 63.066 344.524 68.7309 346.186 75.6954C349.666 90.2003 340.202 106.674 325.071 112.416Z" fill="#3C5AA6"/>
<path fill-rule="evenodd" clip-rule="evenodd" d="M340.341 77.0086C337.598 65.5263 325.374 59.7862 312.81 64.5203C300.634 69.1815 292.652 82.3549 295.39 93.8395C298.208 105.684 310.339 111.419 322.902 106.687C335.174 102.029 343.163 88.7572 340.341 77.0086Z" fill="#FFD700"/>
<path fill-rule="evenodd" clip-rule="evenodd" d="M331.214 79.0412C330.957 85.3684 325.454 90.1366 318.724 89.8635C312.1 89.5949 307.002 84.3943 307.259 78.0693C307.498 72.1267 313.002 67.3563 319.73 67.6294C326.355 67.8979 331.455 73.0986 331.214 79.0412Z" fill="#3C5AA6"/>
<path fill-rule="evenodd" clip-rule="evenodd" d="M322.652 67.9116C318.624 67.7478 315.241 70.5199 315.1 74.1046C314.955 77.687 318.1 80.7254 322.124 80.887C326.152 81.0509 329.535 78.2787 329.676 74.6963C329.824 71.1117 326.676 68.0755 322.652 67.9116Z" fill="white"/>
<path fill-rule="evenodd" clip-rule="evenodd" d="M121.166 120.398C112.986 123.864 104.135 123.858 96.8833 120.371C90.1691 117.148 85.3281 111.305 83.2501 103.918C79.101 89.1874 88.2391 71.8239 103.622 65.2099C111.887 61.7072 120.804 61.7231 128.128 65.235C134.776 68.4259 139.553 74.1363 141.577 81.308C145.81 96.2498 136.663 113.786 121.166 120.398Z" fill="#3C5AA6"/>
<path fill-rule="evenodd" clip-rule="evenodd" d="M135.723 82.214C132.357 70.2855 119.288 64.7845 106.308 70.2855C93.7334 75.691 85.9176 89.8544 89.2793 101.785C92.7433 114.089 105.712 119.592 118.692 114.089C131.369 108.684 139.185 94.4201 135.723 82.214Z" fill="#FFD700"/>
<path fill-rule="evenodd" clip-rule="evenodd" d="M126.938 84.4967C126.938 90.8285 121.632 95.8175 114.9 95.8175C108.268 95.8175 102.965 90.8285 102.965 84.4967C102.965 78.5496 108.268 73.5584 115.002 73.5584C121.632 73.5606 126.938 78.5496 126.938 84.4967Z" fill="#3C5AA6"/>
<path fill-rule="evenodd" clip-rule="evenodd" d="M117.934 73.7244C113.903 73.7244 110.637 76.6308 110.637 80.2178C110.637 83.8047 113.903 86.7112 117.934 86.7112C121.962 86.7112 125.229 83.8047 125.229 80.2178C125.229 76.6308 121.962 73.7244 117.934 73.7244Z" fill="white"/>
<path fill-rule="evenodd" clip-rule="evenodd" d="M76.0853 98.4166C93.6537 85.5027 102.025 66.0043 95.6793 51.3651C92.9026 45.0101 88.1215 39.7389 82.0666 36.3573C77.8788 33.5692 72.883 31.8258 67.6505 31.2386C54.8231 28.9876 39.4055 31.3 24.2361 37.7502C18.8653 40.0145 13.6884 42.7137 8.7571 45.8208L2.82361 49.5944L6.40601 55.6463L17.5151 74.4186C17.5151 74.4186 20.9291 80.1882 20.945 80.1791L26.9673 77.2363L27.8048 76.8266L55.4148 138.483L58.0709 144.41L64.2547 142.432L79.2057 137.65L85.7537 135.558L84.0217 128.903L76.0853 98.4166Z" fill="#3C5AA6"/>
<path fill-rule="evenodd" clip-rule="evenodd" d="M89.0174 54.2535C86.8165 49.178 83.0201 45.1973 78.0448 42.4024C74.4374 40.0012 70.2951 38.8405 66.3963 38.3921C55.3396 36.453 41.554 38.2783 27.0787 44.4349C21.9236 46.6266 17.0871 49.1325 12.6558 51.9524L23.7648 70.7248C26.6098 69.325 29.6892 67.8547 31.3507 66.9785L62.0447 135.518L76.9979 130.738L67.7688 95.2872C85.4304 84.3807 94.3591 66.5756 89.0174 54.2535Z" fill="#FFD700"/>
<path fill-rule="evenodd" clip-rule="evenodd" d="M246.074 72.2793L235.561 62.8157L240.719 57.3237L245.364 52.3758L241.083 47.1068C232.73 36.8262 219.372 32.7021 205.361 36.082C185.865 40.7796 174.865 57.5627 179.203 75.9868C180.947 83.3974 185.603 89.7497 192.311 93.8784C200.325 98.8104 210.393 100.16 220.663 97.6838C231.506 95.0732 239.458 90.6851 246.459 83.4612L252.069 77.6733L246.074 72.2793Z" fill="#3C5AA6"/>
<path fill-rule="evenodd" clip-rule="evenodd" d="M229.919 67.791C227.284 70.9159 224.261 73.7631 218.872 75.0627C217.076 75.4952 214.641 75.898 213.102 75.6249L235.698 51.5586C229.309 43.7019 218.86 40.074 206.986 42.9349C192.229 46.4923 182.274 58.7667 185.959 74.4232C188.924 87.0207 202.844 94.7204 218.999 90.8285C228.784 88.4705 235.589 84.6924 241.697 78.3902L229.919 67.791Z" fill="#FFD700"/>
<path fill-rule="evenodd" clip-rule="evenodd" d="M194.621 32.1581L222.306 0.266968L237.619 23.1338L202.632 41.9312L194.621 32.1581Z" fill="#3C5AA6"/>
<path fill-rule="evenodd" clip-rule="evenodd" d="M221.122 10.4271L229.223 21.427L206.067 32.9025L204.467 30.4786L221.122 10.4271Z" fill="#FFD700"/>
<path d="M201.8 71.1095C197.911 67.2643 198.641 62.1149 200.115 56.7677C202.915 52.4776 207.379 52.1394 212.047 57.4468L201.8 71.1095Z" fill="#3C5AA6"/>
<path d="M47.0127 55.8023C54.9118 50.5517 61.8172 53.6377 68.5451 58.0619C72.9421 64.3687 70.6644 72.0953 60.1944 78.1506L47.0127 55.8023Z" fill="#3C5AA6"/>
</svg>
