<svg width="174" height="157" viewBox="0 0 174 157" fill="none" xmlns="http://www.w3.org/2000/svg">
<path fill-rule="evenodd" clip-rule="evenodd" d="M46.7898 113.954L65.058 111.58L65.2526 108.67L84.4729 106.173L87.6352 52.967L65.3599 52.5385L64.9835 60.1784L58.1383 50.8959L55.3618 57.7385L52.9146 47.418L27.6017 46.4913L46.7898 113.954Z" fill="black"/>
<path fill-rule="evenodd" clip-rule="evenodd" d="M59.7169 107.404L50.4187 108.612L34.5208 51.8598L48.4702 52.0625L54.6812 74.5213L58.4284 61.1975L67.9359 76.0013L68.0171 75.9908L69.0331 57.2797L82.1556 57.7297L79.3341 102.133L66.317 103.824L61.1913 87.407L59.7169 107.404Z" fill="black"/>
<mask id="path-3-inside-1_108_75" fill="white">
<path fill-rule="evenodd" clip-rule="evenodd" d="M118.159 106.235L118.837 106.211L118.346 91.8254C118.346 91.8139 118.346 91.8025 118.345 91.791C118.345 91.7795 118.344 91.7681 118.344 91.7566L118.299 90.4334L118.295 90.4335C118.117 85.9205 117.858 82.4588 117.687 82.4646C117.516 82.4705 117.493 85.9418 117.624 90.4564L117.62 90.4566L118.159 106.235ZM103.95 108.079L142.491 102.346L142.051 89.4483L135.942 89.6569L135.523 77.3948C135.243 69.1712 127.721 62.7535 118.724 63.0607C109.726 63.3678 102.66 70.2834 102.941 78.507L102.941 78.5173L103.359 90.7691L103.799 103.666L103.95 108.079Z"/>
</mask>
<path fill-rule="evenodd" clip-rule="evenodd" d="M118.159 106.235L118.837 106.211L118.346 91.8254C118.346 91.8139 118.346 91.8025 118.345 91.791C118.345 91.7795 118.344 91.7681 118.344 91.7566L118.299 90.4334L118.295 90.4335C118.117 85.9205 117.858 82.4588 117.687 82.4646C117.516 82.4705 117.493 85.9418 117.624 90.4564L117.62 90.4566L118.159 106.235ZM103.95 108.079L142.491 102.346L142.051 89.4483L135.942 89.6569L135.523 77.3948C135.243 69.1712 127.721 62.7535 118.724 63.0607C109.726 63.3678 102.66 70.2834 102.941 78.507L102.941 78.5173L103.359 90.7691L103.799 103.666L103.95 108.079Z" fill="black"/>
<path d="M118.837 106.211L118.991 110.709L123.488 110.555L123.335 106.058L118.837 106.211ZM118.159 106.235L113.661 106.388L113.815 110.885L118.312 110.732L118.159 106.235ZM118.346 91.8254L113.849 91.9783L113.849 91.9789L118.346 91.8254ZM118.344 91.7566L113.847 91.9101L113.847 91.9107L118.344 91.7566ZM118.299 90.4334L122.796 90.2799L122.643 85.7825L118.145 85.936L118.299 90.4334ZM118.295 90.4335L113.799 90.6108L113.975 95.0836L118.449 94.9309L118.295 90.4335ZM117.624 90.4564L117.777 94.9538L122.251 94.8011L122.122 90.3267L117.624 90.4564ZM117.62 90.4566L117.466 85.9592L112.969 86.1127L113.123 90.6101L117.62 90.4566ZM142.491 102.346L143.154 106.797L147.126 106.206L146.989 102.192L142.491 102.346ZM103.95 108.079L99.4526 108.232L99.6246 113.272L104.612 112.53L103.95 108.079ZM142.051 89.4483L146.549 89.2948L146.395 84.7974L141.898 84.951L142.051 89.4483ZM135.942 89.6569L131.445 89.8104L131.598 94.3078L136.095 94.1543L135.942 89.6569ZM135.523 77.3948L140.021 77.2413L140.021 77.2413L135.523 77.3948ZM102.941 78.507L107.438 78.3535L107.438 78.3535L102.941 78.507ZM102.941 78.5173L107.438 78.3638L107.438 78.3638L102.941 78.5173ZM103.359 90.7691L98.8617 90.9226L98.8617 90.9226L103.359 90.7691ZM103.799 103.666L108.297 103.513L108.297 103.513L103.799 103.666ZM118.684 101.714L118.005 101.737L118.312 110.732L118.991 110.709L118.684 101.714ZM113.849 91.9789L114.34 106.365L123.335 106.058L122.844 91.6719L113.849 91.9789ZM113.848 91.9445C113.848 91.9558 113.849 91.9671 113.849 91.9783L122.844 91.6725C122.843 91.6608 122.843 91.6491 122.843 91.6375L113.848 91.9445ZM113.847 91.9107C113.847 91.922 113.847 91.9333 113.848 91.9445L122.843 91.6375C122.842 91.6258 122.842 91.6142 122.841 91.6025L113.847 91.9107ZM113.801 90.5869L113.847 91.9101L122.841 91.6031L122.796 90.2799L113.801 90.5869ZM118.449 94.9309L118.452 94.9308L118.145 85.936L118.142 85.9361L118.449 94.9309ZM117.841 86.962C115.8 87.0317 114.604 85.7786 114.265 85.3773C113.859 84.8959 113.657 84.4462 113.591 84.2922C113.437 83.9369 113.376 83.6577 113.37 83.6334C113.343 83.5155 113.346 83.4915 113.366 83.6513C113.402 83.9259 113.449 84.4051 113.501 85.0952C113.604 86.4512 113.711 88.3866 113.799 90.6108L122.792 90.2562C122.702 87.9675 122.59 85.9155 122.475 84.4138C122.419 83.6751 122.358 83.0079 122.292 82.494C122.261 82.2596 122.214 81.9308 122.139 81.6071C122.11 81.4799 122.026 81.1225 121.849 80.715C121.771 80.5348 121.559 80.0654 121.142 79.571C120.792 79.1567 119.585 77.8972 117.533 77.9672L117.841 86.962ZM122.122 90.3267C122.058 88.1017 122.032 86.1635 122.042 84.8036C122.048 84.1116 122.062 83.6303 122.078 83.354C122.088 83.193 122.092 83.2169 122.073 83.3363C122.069 83.3609 122.028 83.6437 121.898 84.0086C121.842 84.1668 121.672 84.6292 121.3 85.1372C120.989 85.5607 119.881 86.8924 117.841 86.962L117.533 77.9672C115.482 78.0373 114.364 79.3761 114.043 79.8134C113.66 80.335 113.481 80.8178 113.415 81.0029C113.267 81.4215 113.207 81.7838 113.187 81.9127C113.134 82.2408 113.109 82.5721 113.095 82.8079C113.064 83.3251 113.048 83.995 113.043 84.7358C113.031 86.2418 113.059 88.2966 113.125 90.5861L122.122 90.3267ZM117.774 94.9539L117.777 94.9538L117.47 85.9591L117.466 85.9592L117.774 94.9539ZM122.656 106.081L122.117 90.303L113.123 90.6101L113.661 106.388L122.656 106.081ZM141.829 97.8947L103.288 103.628L104.612 112.53L143.154 106.797L141.829 97.8947ZM137.554 89.6019L137.994 102.499L146.989 102.192L146.549 89.2948L137.554 89.6019ZM136.095 94.1543L142.205 93.9457L141.898 84.951L135.788 85.1595L136.095 94.1543ZM140.439 89.5034L140.021 77.2413L131.026 77.5483L131.445 89.8104L140.439 89.5034ZM140.021 77.2413C139.643 66.1617 129.662 58.1847 118.57 58.5633L118.877 67.558C125.78 67.3224 130.843 72.1806 131.026 77.5483L140.021 77.2413ZM118.57 58.5633C107.478 58.9419 98.0649 67.5809 98.4432 78.6606L107.438 78.3535C107.255 72.9858 111.974 67.7937 118.877 67.558L118.57 58.5633ZM98.4432 78.6606L98.4435 78.6709L107.438 78.3638L107.438 78.3535L98.4432 78.6606ZM98.4435 78.6709L98.8617 90.9226L107.856 90.6156L107.438 78.3638L98.4435 78.6709ZM98.8617 90.9226L99.302 103.82L108.297 103.513L107.856 90.6156L98.8617 90.9226ZM108.447 107.925L108.297 103.513L99.302 103.82L99.4526 108.232L108.447 107.925Z" fill="black" mask="url(#path-3-inside-1_108_75)"/>
<path d="M87.4404 80.5459L110.365 79.5574L107.667 95.8455L101.839 97.2746L99.7713 116.133L81.3181 120.658L87.4404 80.5459Z" fill="black"/>
<path d="M104.807 84.1854L103.954 93.4309L98.2542 94.0429L95.9946 113.456L86.7974 115.711L90.1912 85.0195L104.807 84.1854Z" fill="black"/>
<path d="M97.9305 74.8666L97.9322 74.867C100.019 75.3063 102.431 74.7696 104.518 73.2131C108.55 70.1868 109.772 64.5386 107.676 60.85L107.674 60.8476C106.686 59.1036 105.101 57.9461 103.182 57.5433L97.9305 74.8666ZM97.9305 74.8666C96.0011 74.4619 94.3747 73.2747 93.3399 71.4454L93.3394 71.4446M97.9305 74.8666L93.3394 71.4446M93.3394 71.4446C91.2963 67.8363 92.5084 62.2432 96.5179 59.2145M93.3394 71.4446L96.5179 59.2145M96.5179 59.2145C98.6289 57.641 101.064 57.1002 103.181 57.5431L96.5179 59.2145Z" fill="black" stroke="black" stroke-width="5"/>
<path fill-rule="evenodd" clip-rule="evenodd" d="M104.976 62.1083C105.528 64.3594 104.037 66.6055 101.592 67.2051C99.1837 67.7956 96.8231 66.4942 96.271 64.2431C95.7525 62.1287 97.243 59.882 99.6885 59.2823C102.096 58.6927 104.458 59.994 104.976 62.1083Z" fill="black"/>
<path fill-rule="evenodd" clip-rule="evenodd" d="M104.272 60.957C104.576 62.4329 103.665 63.8245 102.206 64.1155C100.769 64.4019 99.3805 63.4683 99.0772 61.9929C98.7916 60.6069 99.7021 59.2147 101.161 58.9238C102.598 58.6373 103.987 59.5708 104.272 60.957Z" fill="black"/>
<path fill-rule="evenodd" clip-rule="evenodd" d="M50.7898 109.954L69.058 107.58L69.2526 104.67L88.4729 102.173L91.6352 48.967L69.3599 48.5385L68.9835 56.1784L62.1383 46.8959L59.3618 53.7385L56.9146 43.418L31.6017 42.4913L50.7898 109.954Z" fill="#3C5AA6"/>
<path fill-rule="evenodd" clip-rule="evenodd" d="M63.7169 103.404L54.4187 104.612L38.5208 47.8598L52.4702 48.0625L58.6812 70.5213L62.4284 57.1975L71.9359 72.0013L72.0171 71.9908L73.0331 53.2797L86.1556 53.7297L83.3341 98.1331L70.317 99.8242L65.1913 83.407L63.7169 103.404Z" fill="#FFD700"/>
<mask id="path-12-inside-2_108_75" fill="white">
<path fill-rule="evenodd" clip-rule="evenodd" d="M122.159 102.235L122.837 102.211L122.346 87.8254C122.346 87.8139 122.346 87.8025 122.345 87.791C122.345 87.7795 122.344 87.7681 122.344 87.7566L122.299 86.4334L122.295 86.4335C122.117 81.9205 121.858 78.4588 121.687 78.4646C121.516 78.4705 121.493 81.9418 121.624 86.4564L121.62 86.4566L122.159 102.235ZM107.95 104.079L146.491 98.3457L146.051 85.4483L139.942 85.6569L139.523 73.3948C139.243 65.1712 131.721 58.7535 122.724 59.0607C113.726 59.3678 106.66 66.2834 106.941 74.507L106.941 74.5173L107.359 86.7691L107.799 99.6665L107.95 104.079Z"/>
</mask>
<path fill-rule="evenodd" clip-rule="evenodd" d="M122.159 102.235L122.837 102.211L122.346 87.8254C122.346 87.8139 122.346 87.8025 122.345 87.791C122.345 87.7795 122.344 87.7681 122.344 87.7566L122.299 86.4334L122.295 86.4335C122.117 81.9205 121.858 78.4588 121.687 78.4646C121.516 78.4705 121.493 81.9418 121.624 86.4564L121.62 86.4566L122.159 102.235ZM107.95 104.079L146.491 98.3457L146.051 85.4483L139.942 85.6569L139.523 73.3948C139.243 65.1712 131.721 58.7535 122.724 59.0607C113.726 59.3678 106.66 66.2834 106.941 74.507L106.941 74.5173L107.359 86.7691L107.799 99.6665L107.95 104.079Z" fill="#FFD700"/>
<path d="M122.837 102.211L122.991 106.709L127.488 106.555L127.335 102.058L122.837 102.211ZM122.159 102.235L117.661 102.388L117.815 106.885L122.312 106.732L122.159 102.235ZM122.346 87.8254L117.849 87.9783L117.849 87.9789L122.346 87.8254ZM122.344 87.7566L117.847 87.9101L117.847 87.9107L122.344 87.7566ZM122.299 86.4334L126.796 86.2799L126.643 81.7825L122.145 81.936L122.299 86.4334ZM122.295 86.4335L117.799 86.6108L117.975 91.0836L122.449 90.9309L122.295 86.4335ZM121.624 86.4564L121.777 90.9538L126.251 90.8011L126.122 86.3267L121.624 86.4564ZM121.62 86.4566L121.466 81.9592L116.969 82.1127L117.123 86.6101L121.62 86.4566ZM146.491 98.3457L147.154 102.797L151.126 102.206L150.989 98.1922L146.491 98.3457ZM107.95 104.079L103.453 104.232L103.625 109.272L108.612 108.53L107.95 104.079ZM146.051 85.4483L150.549 85.2948L150.395 80.7974L145.898 80.951L146.051 85.4483ZM139.942 85.6569L135.445 85.8104L135.598 90.3078L140.095 90.1543L139.942 85.6569ZM139.523 73.3948L144.021 73.2413L144.021 73.2413L139.523 73.3948ZM106.941 74.507L111.438 74.3535L111.438 74.3535L106.941 74.507ZM106.941 74.5173L111.438 74.3638L111.438 74.3638L106.941 74.5173ZM107.359 86.7691L102.862 86.9226L102.862 86.9226L107.359 86.7691ZM107.799 99.6665L112.297 99.5129L112.297 99.5129L107.799 99.6665ZM122.684 97.7139L122.005 97.7371L122.312 106.732L122.991 106.709L122.684 97.7139ZM117.849 87.9789L118.34 102.365L127.335 102.058L126.844 87.6719L117.849 87.9789ZM117.848 87.9445C117.848 87.9558 117.849 87.9671 117.849 87.9783L126.844 87.6725C126.843 87.6608 126.843 87.6491 126.843 87.6375L117.848 87.9445ZM117.847 87.9107C117.847 87.922 117.847 87.9333 117.848 87.9445L126.843 87.6375C126.842 87.6258 126.842 87.6142 126.841 87.6025L117.847 87.9107ZM117.801 86.5869L117.847 87.9101L126.841 87.6031L126.796 86.2799L117.801 86.5869ZM122.449 90.9309L122.452 90.9308L122.145 81.936L122.142 81.9361L122.449 90.9309ZM121.841 82.962C119.8 83.0317 118.604 81.7786 118.265 81.3773C117.859 80.8959 117.657 80.4462 117.591 80.2922C117.437 79.9369 117.376 79.6577 117.37 79.6334C117.343 79.5155 117.346 79.4915 117.366 79.6513C117.402 79.9259 117.449 80.4051 117.501 81.0952C117.604 82.4512 117.711 84.3866 117.799 86.6108L126.792 86.2562C126.702 83.9675 126.59 81.9155 126.475 80.4138C126.419 79.6751 126.358 79.0079 126.292 78.494C126.261 78.2596 126.214 77.9308 126.139 77.6071C126.11 77.4799 126.026 77.1225 125.849 76.715C125.771 76.5348 125.559 76.0654 125.142 75.571C124.792 75.1567 123.585 73.8972 121.533 73.9672L121.841 82.962ZM126.122 86.3267C126.058 84.1017 126.032 82.1635 126.042 80.8036C126.048 80.1116 126.062 79.6303 126.078 79.354C126.088 79.193 126.092 79.2169 126.073 79.3363C126.069 79.3609 126.028 79.6437 125.898 80.0086C125.842 80.1668 125.672 80.6292 125.3 81.1372C124.989 81.5607 123.881 82.8924 121.841 82.962L121.533 73.9672C119.482 74.0373 118.364 75.3761 118.043 75.8134C117.66 76.335 117.481 76.8178 117.415 77.0029C117.267 77.4215 117.207 77.7838 117.187 77.9127C117.134 78.2408 117.109 78.5721 117.095 78.8079C117.064 79.3251 117.048 79.995 117.043 80.7358C117.031 82.2418 117.059 84.2966 117.125 86.5861L126.122 86.3267ZM121.774 90.9539L121.777 90.9538L121.47 81.9591L121.466 81.9592L121.774 90.9539ZM126.656 102.081L126.117 86.303L117.123 86.6101L117.661 102.388L126.656 102.081ZM145.829 93.8947L107.288 99.6277L108.612 108.53L147.154 102.797L145.829 93.8947ZM141.554 85.6019L141.994 98.4992L150.989 98.1922L150.549 85.2948L141.554 85.6019ZM140.095 90.1543L146.205 89.9457L145.898 80.951L139.788 81.1595L140.095 90.1543ZM144.439 85.5034L144.021 73.2413L135.026 73.5483L135.445 85.8104L144.439 85.5034ZM144.021 73.2413C143.643 62.1617 133.662 54.1847 122.57 54.5633L122.877 63.558C129.78 63.3224 134.843 68.1806 135.026 73.5483L144.021 73.2413ZM122.57 54.5633C111.478 54.9419 102.065 63.5809 102.443 74.6606L111.438 74.3535C111.255 68.9858 115.974 63.7937 122.877 63.558L122.57 54.5633ZM102.443 74.6606L102.444 74.6709L111.438 74.3638L111.438 74.3535L102.443 74.6606ZM102.444 74.6709L102.862 86.9226L111.856 86.6156L111.438 74.3638L102.444 74.6709ZM102.862 86.9226L103.302 99.82L112.297 99.5129L111.856 86.6156L102.862 86.9226ZM112.447 103.925L112.297 99.5129L103.302 99.82L103.453 104.232L112.447 103.925Z" fill="#3C5AA6" mask="url(#path-12-inside-2_108_75)"/>
<path d="M91.4404 76.5458L114.365 75.5574L111.667 91.8455L105.839 93.2745L103.771 112.133L85.3181 116.658L91.4404 76.5458Z" fill="#3C5AA6"/>
<path d="M108.807 80.1853L107.954 89.4308L102.254 90.0429L99.9946 109.456L90.7974 111.711L94.1912 81.0195L108.807 80.1853Z" fill="#FFD700"/>
<path d="M110.013 55.0713C113.445 57.6106 114.248 63.3197 110.774 68.0146C107.3 72.7094 101.606 73.6116 98.174 71.0723C94.7421 68.533 93.9396 62.8239 97.4133 58.1291C100.887 53.4342 106.581 52.532 110.013 55.0713Z" fill="#FFD700" stroke="#3C5AA6" stroke-width="5"/>
<path fill-rule="evenodd" clip-rule="evenodd" d="M109.288 58.9714C109.68 61.3866 107.922 63.6252 105.299 64.051C102.715 64.4705 100.34 62.9028 99.9482 60.4875C99.5799 58.219 101.337 55.9797 103.961 55.5537C106.544 55.1353 108.92 56.7028 109.288 58.9714Z" fill="#3C5AA6"/>
<path fill-rule="evenodd" clip-rule="evenodd" d="M108.644 57.7007C108.84 59.2793 107.765 60.6674 106.204 60.8512C104.668 61.0321 103.285 59.933 103.09 58.355C102.906 56.8724 103.981 55.4838 105.541 55.3001C107.077 55.1191 108.46 56.2181 108.644 57.7007Z" fill="white"/>
</svg>
