<svg width="151" height="115" viewBox="0 0 151 115" fill="none" xmlns="http://www.w3.org/2000/svg">
<path d="M32.4443 14.0766L46.892 39.2328L53.3077 14.9657L53.8054 13.0832L55.7524 13.1048L68.032 13.2414L71.2057 13.2766L70.428 16.3537L62.2447 48.7349L62.2407 48.7509L51.5816 92.1328L51.1086 94.0582L49.126 94.0362L38.3106 93.9159L35.2087 93.8814L35.9015 90.8577L42.3695 62.6283L20.4753 24.6915L14.9021 24.6295L12.4023 24.6017L12.4301 22.1019L12.5076 15.1242L12.5354 12.6243L15.0353 12.6521L30.3042 12.8219L31.7328 12.8378L32.4443 14.0766Z" fill="black" stroke="black" stroke-width="5"/>
<mask id="path-2-inside-1_108_76" fill="white">
<path fill-rule="evenodd" clip-rule="evenodd" d="M125.145 30.0822L124.174 29.8441L119.117 50.477L118.641 52.4195L118.646 52.4208C117.097 58.8875 116.083 63.8971 116.328 63.957C116.572 64.0168 117.99 59.1063 119.607 52.6563L119.612 52.6576L120.088 50.7151L125.145 30.0822ZM146.017 33.1388L89.1088 25.8829L84.5858 44.3367L93.327 46.4792L89.0268 64.024C86.1428 75.7905 94.2412 87.8872 107.115 91.0425C119.989 94.1979 132.763 87.2171 135.647 75.4505L139.947 57.9057L144.47 39.4519L146.017 33.1388Z"/>
</mask>
<path fill-rule="evenodd" clip-rule="evenodd" d="M125.145 30.0822L124.174 29.8441L119.117 50.477L118.641 52.4195L118.646 52.4208C117.097 58.8875 116.083 63.8971 116.328 63.957C116.572 64.0168 117.99 59.1063 119.607 52.6563L119.612 52.6576L120.088 50.7151L125.145 30.0822ZM146.017 33.1388L89.1088 25.8829L84.5858 44.3367L93.327 46.4792L89.0268 64.024C86.1428 75.7905 94.2412 87.8872 107.115 91.0425C119.989 94.1979 132.763 87.2171 135.647 75.4505L139.947 57.9057L144.47 39.4519L146.017 33.1388Z" fill="black"/>
<path d="M124.174 29.8441L125.364 24.9879L120.508 23.7976L119.318 28.6539L124.174 29.8441ZM125.145 30.0822L130.001 31.2724L131.192 26.4162L126.335 25.2259L125.145 30.0822ZM118.641 52.4195L113.784 51.2292L112.594 56.0855L117.45 57.2758L118.641 52.4195ZM118.646 52.4208L123.508 53.5853L124.667 48.7485L119.836 47.5645L118.646 52.4208ZM119.607 52.6563L120.797 47.8001L115.966 46.6161L114.757 51.4404L119.607 52.6563ZM119.612 52.6576L118.422 57.5138L123.278 58.7041L124.468 53.8478L119.612 52.6576ZM89.1088 25.8829L89.7412 20.923L85.3148 20.3587L84.2525 24.6926L89.1088 25.8829ZM146.017 33.1388L150.874 34.3291L152.207 28.8876L146.65 28.179L146.017 33.1388ZM84.5858 44.3367L79.7295 43.1464L78.5392 48.0027L83.3955 49.1929L84.5858 44.3367ZM93.327 46.4792L98.1833 47.6694L99.3736 42.8132L94.5173 41.6229L93.327 46.4792ZM144.47 39.4519L139.614 38.2617L144.47 39.4519ZM122.984 34.7004L123.955 34.9384L126.335 25.2259L125.364 24.9879L122.984 34.7004ZM123.973 51.6673L129.03 31.0344L119.318 28.6539L114.26 49.2867L123.973 51.6673ZM123.497 53.6098L123.973 51.6673L114.26 49.2867L113.784 51.2292L123.497 53.6098ZM119.836 47.5645L119.831 47.5633L117.45 57.2758L117.455 57.277L119.836 47.5645ZM117.518 59.1007C119.719 59.6403 120.62 61.3391 120.86 61.8675C121.148 62.5019 121.227 63.0396 121.251 63.2193C121.308 63.6354 121.288 63.9376 121.288 63.9462C121.283 64.0424 121.28 64.012 121.316 63.7637C121.382 63.3172 121.513 62.586 121.716 61.5785C122.116 59.5898 122.742 56.7839 123.508 53.5853L113.783 51.2562C113 54.5245 112.345 57.4567 111.913 59.6045C111.699 60.6651 111.526 61.6017 111.422 62.3135C111.373 62.6443 111.318 63.0656 111.299 63.4725C111.291 63.6364 111.274 64.0587 111.341 64.5579C111.371 64.7792 111.458 65.3491 111.757 66.0064C112.007 66.5577 112.921 68.2699 115.137 68.8132L117.518 59.1007ZM114.757 51.4404C113.957 54.6306 113.214 57.4079 112.65 59.3564C112.364 60.3436 112.142 61.0527 111.994 61.4788C111.911 61.7158 111.894 61.7411 111.934 61.6537C111.938 61.6459 112.061 61.369 112.303 61.026C112.408 60.8779 112.726 60.4376 113.275 60.0085C113.733 59.651 115.316 58.5611 117.518 59.1007L115.137 68.8132C117.354 69.3566 118.955 68.2607 119.433 67.8878C120.002 67.4432 120.342 66.9779 120.471 66.7955C120.761 66.3841 120.941 66.0016 121.01 65.8526C121.181 65.4829 121.327 65.084 121.437 64.7683C121.674 64.089 121.954 63.1785 122.255 62.1393C122.865 60.035 123.639 57.132 124.457 53.8723L114.757 51.4404ZM120.802 47.8013L120.797 47.8001L118.417 57.5126L118.422 57.5138L120.802 47.8013ZM115.232 49.5248L114.756 51.4673L124.468 53.8478L124.944 51.9053L115.232 49.5248ZM120.289 28.8919L115.232 49.5248L124.944 51.9053L130.001 31.2724L120.289 28.8919ZM88.4764 30.8427L145.385 38.0986L146.65 28.179L89.7412 20.923L88.4764 30.8427ZM89.442 45.5269L93.965 27.0732L84.2525 24.6926L79.7295 43.1464L89.442 45.5269ZM94.5173 41.6229L85.776 39.4804L83.3955 49.1929L92.1368 51.3354L94.5173 41.6229ZM88.4708 45.2889L84.1705 62.8337L93.8831 65.2142L98.1833 47.6694L88.4708 45.2889ZM84.1705 62.8337C80.5307 77.6841 90.7891 92.1891 105.925 95.8988L108.305 86.1863C97.6932 83.5853 91.7549 73.8969 93.8831 65.2142L84.1705 62.8337ZM105.925 95.8988C121.06 99.6085 136.863 91.4912 140.503 76.6408L130.791 74.2603C128.663 82.943 118.917 88.7873 108.305 86.1863L105.925 95.8988ZM140.503 76.6408L144.803 59.096L135.091 56.7155L130.791 74.2603L140.503 76.6408ZM144.803 59.096L149.326 40.6422L139.614 38.2617L135.091 56.7155L144.803 59.096ZM141.161 31.9485L139.614 38.2617L149.326 40.6422L150.874 34.3291L141.161 31.9485Z" fill="black" mask="url(#path-2-inside-1_108_76)"/>
<path d="M59.7067 81.6849L59.7083 81.6862C64.6775 85.4563 71.5336 86.9224 78.577 85.4995C92.0509 82.7396 101.972 70.2216 101.057 58.0678L101.057 58.0645C100.627 52.2696 97.8817 47.2079 93.319 43.7509L59.7067 81.6849ZM59.7067 81.6849C55.1071 78.2001 52.3158 73.02 51.8745 67.0071L51.8744 67.0059M59.7067 81.6849L51.8744 67.0059M51.8744 67.0059C50.9939 55.0693 60.8561 42.683 74.2553 39.897M51.8744 67.0059L74.2553 39.897M74.2553 39.897C81.3748 38.459 88.2876 39.9427 93.3181 43.7502L74.2553 39.897Z" fill="black" stroke="black" stroke-width="6"/>
<path fill-rule="evenodd" clip-rule="evenodd" d="M90.6189 58.2639C89.4825 63.8384 83.8166 67.2582 77.7628 66.0241C71.7991 64.8084 67.9259 59.4441 69.0622 53.8696C70.1296 48.6337 75.7939 45.2115 81.8497 46.4459C87.811 47.6632 91.6862 53.028 90.6189 58.2639Z" fill="black"/>
<path fill-rule="evenodd" clip-rule="evenodd" d="M90.2651 54.9708C89.3902 58.5642 85.9096 60.6971 82.3654 59.8117C78.8774 58.9406 76.7752 55.4119 77.6497 51.8198C78.4701 48.4446 81.9509 46.3104 85.4939 47.1955C88.9831 48.0668 91.0866 51.5958 90.2651 54.9708Z" fill="black"/>
<path d="M36.4443 10.0766L50.892 35.2328L57.3077 10.9657L57.8054 9.08317L59.7524 9.10482L72.032 9.24135L75.2057 9.27664L74.428 12.3537L66.2447 44.7349L66.2407 44.7509L55.5816 88.1328L55.1086 90.0582L53.126 90.0362L42.3106 89.9159L39.2087 89.8814L39.9015 86.8577L46.3695 58.6283L24.4753 20.6915L18.9021 20.6295L16.4023 20.6017L16.4301 18.1019L16.5076 11.1242L16.5354 8.62431L19.0353 8.65211L34.3042 8.82187L35.7328 8.83776L36.4443 10.0766Z" fill="#FFD700" stroke="#3C5AA6" stroke-width="5"/>
<mask id="path-8-inside-2_108_76" fill="white">
<path fill-rule="evenodd" clip-rule="evenodd" d="M129.145 26.0822L128.174 25.8441L123.117 46.477L122.641 48.4195L122.646 48.4208C121.097 54.8875 120.083 59.8971 120.328 59.957C120.572 60.0168 121.99 55.1063 123.607 48.6563L123.612 48.6576L124.088 46.7151L129.145 26.0822ZM150.017 29.1388L93.1088 21.8829L88.5858 40.3367L97.327 42.4792L93.0268 60.024C90.1428 71.7905 98.2412 83.8872 111.115 87.0425C123.989 90.1979 136.763 83.2171 139.647 71.4505L143.947 53.9057L148.47 35.4519L150.017 29.1388Z"/>
</mask>
<path fill-rule="evenodd" clip-rule="evenodd" d="M129.145 26.0822L128.174 25.8441L123.117 46.477L122.641 48.4195L122.646 48.4208C121.097 54.8875 120.083 59.8971 120.328 59.957C120.572 60.0168 121.99 55.1063 123.607 48.6563L123.612 48.6576L124.088 46.7151L129.145 26.0822ZM150.017 29.1388L93.1088 21.8829L88.5858 40.3367L97.327 42.4792L93.0268 60.024C90.1428 71.7905 98.2412 83.8872 111.115 87.0425C123.989 90.1979 136.763 83.2171 139.647 71.4505L143.947 53.9057L148.47 35.4519L150.017 29.1388Z" fill="#FFD700"/>
<path d="M128.174 25.8441L129.364 20.9879L124.508 19.7976L123.318 24.6539L128.174 25.8441ZM129.145 26.0822L134.001 27.2724L135.192 22.4162L130.335 21.2259L129.145 26.0822ZM122.641 48.4195L117.784 47.2292L116.594 52.0855L121.45 53.2758L122.641 48.4195ZM122.646 48.4208L127.508 49.5853L128.667 44.7485L123.836 43.5645L122.646 48.4208ZM123.607 48.6563L124.797 43.8001L119.966 42.6161L118.757 47.4404L123.607 48.6563ZM123.612 48.6576L122.422 53.5138L127.278 54.7041L128.468 49.8478L123.612 48.6576ZM93.1088 21.8829L93.7412 16.923L89.3148 16.3587L88.2525 20.6926L93.1088 21.8829ZM150.017 29.1388L154.874 30.3291L156.207 24.8876L150.65 24.179L150.017 29.1388ZM88.5858 40.3367L83.7295 39.1464L82.5392 44.0027L87.3955 45.1929L88.5858 40.3367ZM97.327 42.4792L102.183 43.6694L103.374 38.8132L98.5173 37.6229L97.327 42.4792ZM126.984 30.7004L127.955 30.9384L130.335 21.2259L129.364 20.9879L126.984 30.7004ZM127.973 47.6673L133.03 27.0344L123.318 24.6539L118.26 45.2867L127.973 47.6673ZM127.497 49.6098L127.973 47.6673L118.26 45.2867L117.784 47.2292L127.497 49.6098ZM123.836 43.5645L123.831 43.5633L121.45 53.2758L121.455 53.277L123.836 43.5645ZM121.518 55.1007C123.719 55.6403 124.62 57.3391 124.86 57.8675C125.148 58.5019 125.227 59.0396 125.251 59.2193C125.308 59.6354 125.288 59.9376 125.288 59.9462C125.283 60.0424 125.28 60.012 125.316 59.7637C125.382 59.3172 125.513 58.586 125.716 57.5785C126.116 55.5898 126.742 52.7839 127.508 49.5853L117.783 47.2562C117 50.5245 116.345 53.4567 115.913 55.6045C115.699 56.6651 115.526 57.6017 115.422 58.3135C115.373 58.6443 115.318 59.0656 115.299 59.4725C115.291 59.6364 115.274 60.0587 115.341 60.5579C115.371 60.7792 115.458 61.3491 115.757 62.0064C116.007 62.5577 116.921 64.2699 119.137 64.8132L121.518 55.1007ZM118.757 47.4404C117.957 50.6306 117.214 53.4079 116.65 55.3564C116.364 56.3436 116.142 57.0527 115.994 57.4788C115.911 57.7158 115.894 57.7411 115.934 57.6537C115.938 57.6459 116.061 57.369 116.303 57.026C116.408 56.8779 116.726 56.4376 117.275 56.0085C117.733 55.651 119.316 54.5611 121.518 55.1007L119.137 64.8132C121.354 65.3566 122.955 64.2607 123.433 63.8878C124.002 63.4432 124.342 62.9779 124.471 62.7955C124.761 62.3841 124.941 62.0016 125.01 61.8526C125.181 61.4829 125.327 61.084 125.437 60.7683C125.674 60.089 125.954 59.1785 126.255 58.1393C126.865 56.035 127.639 53.132 128.457 49.8723L118.757 47.4404ZM124.802 43.8013L124.797 43.8001L122.417 53.5126L122.422 53.5138L124.802 43.8013ZM119.232 45.5248L118.756 47.4673L128.468 49.8478L128.944 47.9053L119.232 45.5248ZM124.289 24.8919L119.232 45.5248L128.944 47.9053L134.001 27.2724L124.289 24.8919ZM92.4764 26.8427L149.385 34.0986L150.65 24.179L93.7412 16.923L92.4764 26.8427ZM93.442 41.5269L97.965 23.0732L88.2525 20.6926L83.7295 39.1464L93.442 41.5269ZM98.5173 37.6229L89.776 35.4804L87.3955 45.1929L96.1368 47.3354L98.5173 37.6229ZM92.4708 41.2889L88.1705 58.8337L97.8831 61.2142L102.183 43.6694L92.4708 41.2889ZM88.1705 58.8337C84.5307 73.6841 94.7891 88.1891 109.925 91.8988L112.305 82.1863C101.693 79.5853 95.7549 69.8969 97.8831 61.2142L88.1705 58.8337ZM109.925 91.8988C125.06 95.6085 140.863 87.4912 144.503 72.6408L134.791 70.2603C132.663 78.943 122.917 84.7873 112.305 82.1863L109.925 91.8988ZM144.503 72.6408L148.803 55.096L139.091 52.7155L134.791 70.2603L144.503 72.6408ZM148.803 55.096L153.326 36.6422L143.614 34.2617L139.091 52.7155L148.803 55.096ZM145.161 27.9485L143.614 34.2617L153.326 36.6422L154.874 30.3291L145.161 27.9485Z" fill="#3C5AA6" mask="url(#path-8-inside-2_108_76)"/>
<path d="M102.193 44.5884C108.784 54.8312 104.77 69.8449 92.1955 77.9362C79.6209 86.0275 64.2937 83.459 57.7028 73.2161C51.1119 62.9733 55.1255 47.9597 67.7001 39.8684C80.2746 31.7771 95.6018 34.3456 102.193 44.5884Z" fill="#FFD700" stroke="#3C5AA6" stroke-width="5"/>
<path fill-rule="evenodd" clip-rule="evenodd" d="M94.6189 54.2639C93.4825 59.8384 87.8166 63.2582 81.7628 62.0241C75.7991 60.8084 71.9259 55.4441 73.0622 49.8696C74.1296 44.6337 79.7939 41.2115 85.8497 42.4459C91.811 43.6632 95.6862 49.028 94.6189 54.2639Z" fill="#3C5AA6"/>
<path fill-rule="evenodd" clip-rule="evenodd" d="M94.2651 50.9708C93.3902 54.5642 89.9096 56.6971 86.3654 55.8117C82.8774 54.9406 80.7752 51.4119 81.6497 47.8198C82.4701 44.4446 85.9509 42.3104 89.4939 43.1955C92.9831 44.0668 95.0866 47.5958 94.2651 50.9708Z" fill="white"/>
</svg>
